<svg width="83" height="82" viewBox="0 0 83 82" fill="none" xmlns="http://www.w3.org/2000/svg">
<path d="M38.6627 0.692146C32.8832 1.43508 28.4105 4.6963 25.6505 10.1855C24.2616 12.9464 23.471 16.3365 23.6969 18.613C23.8099 19.8721 24.1813 21.2442 24.5528 21.8098C24.8757 22.2942 25.1987 22.0198 21.0657 24.6836C17.5459 26.9275 16.5771 27.7022 15.0921 29.4299C12.4123 32.5455 10.975 35.3709 8.87667 41.6189C8.03585 44.1054 7.05112 46.8663 6.69638 47.754C5.90492 49.7393 3.7581 56.2459 3.20927 58.3283C2.14339 62.3325 1.75602 66.0137 1.99781 69.4849C2.11076 71.1481 2.20781 71.697 2.4337 71.9388C3.15991 72.7629 10.3123 75.927 11.4259 75.927C13.4924 75.927 17.4639 72.0199 19.1431 68.3228L19.6919 67.1281L19.9019 67.774C20.4508 69.4849 21.8069 71.7614 23.2761 73.4732C23.809 74.1031 24.2608 74.7649 24.2608 74.9423C24.2608 75.1523 24.3897 75.3138 24.6323 75.3623C24.8264 75.4108 32.5594 75.4267 41.8102 75.4108L58.6333 75.3623L59.3763 74.6361C60.7969 73.264 62.2987 70.7449 63.4775 67.7748C63.5745 67.5163 63.7519 67.7422 64.3819 68.9695C65.8184 71.7463 68.0631 74.329 70.3229 75.7823C71.8079 76.7511 72.3735 76.67 76.248 74.959C77.0879 74.5876 78.363 73.9576 79.0892 73.5543C80.5098 72.7637 80.7524 72.4566 81.0913 70.9231C81.3331 69.8254 81.2854 66.4027 80.9942 64.4809C80.2998 59.6694 78.1204 52.3078 74.7947 43.3959C72.1794 36.405 70.3547 33.0149 67.3202 29.4793C65.8184 27.7198 64.9307 26.9928 62.041 25.1522C60.6689 24.2804 59.1512 23.3115 58.6986 23.0212L57.8427 22.4724L58.2627 21.8591C59.393 20.1315 59.7318 17.6291 59.2156 14.562C57.9398 6.90922 53.3065 2.22738 45.7349 0.952338C43.8449 0.627722 40.2448 0.498882 38.6627 0.692146ZM44.459 3.37274C47.7043 3.93747 50.3196 5.27777 52.6765 7.61869C53.9197 8.86193 55.8406 11.2999 55.6792 11.4614C55.6474 11.494 55.0333 11.1543 54.3071 10.7184C52.0147 9.32962 49.5926 8.49047 46.057 7.86048C44.136 7.50491 39.2601 7.45722 37.5006 7.76343C34.6427 8.28048 31.5756 9.31372 29.2832 10.5561C28.7987 10.8147 28.3629 10.992 28.3302 10.9435C28.1847 10.7979 29.3635 9.03847 30.3482 7.95669C32.4959 5.61577 35.3856 3.98516 38.4686 3.35517C39.9378 3.06569 42.6502 3.06569 44.459 3.37274ZM44.9267 10.2984C47.1546 10.6214 49.3341 11.1543 50.9806 11.832C53.3056 12.7523 55.711 14.3988 56.5827 15.6747C57.0671 16.3524 57.1157 16.5465 57.1157 17.5638C57.1157 18.5168 57.0354 18.8715 56.5986 19.7433C55.6465 21.6968 53.6604 23.4563 51.1739 24.5866C49.4788 25.3454 48.2682 25.5872 46.4594 25.5228C45.0061 25.4743 44.7317 25.4098 43.6341 24.8928C42.9723 24.5699 42.0846 24.0051 41.6646 23.6337C41.2613 23.2781 40.8413 22.9719 40.7443 22.9719C40.6472 22.9719 40.5669 22.8916 40.5669 22.8104C40.5669 22.4875 39.6625 22.6648 39.0819 23.1007C38.7589 23.3425 38.1616 23.7625 37.7742 24.0537C34.8518 26.1687 31.4132 25.5554 28.1361 22.326C26.6511 20.8727 26.037 19.7424 25.9241 18.2574C25.7308 15.868 26.9732 14.367 30.5741 12.5908C33.4153 11.202 35.8692 10.4599 38.6301 10.1688C40.0992 10.0081 43.3119 10.0885 44.9267 10.2984ZM58.5363 25.6684C59.7954 26.5243 60.8772 27.2663 60.9416 27.3149C61.1357 27.4763 59.7628 31.8838 59.3913 32.2879C59.2943 32.4008 55.2257 34.8873 50.3339 37.8097L41.4554 43.1533L41.4069 34.8062C41.391 30.2214 41.391 26.4431 41.4228 26.4272C41.4554 26.3946 42.2302 26.669 43.1664 27.0405C44.6514 27.6378 45.0229 27.7181 46.4761 27.7834C47.7679 27.8319 48.397 27.7834 49.4629 27.509C51.0768 27.1057 53.2889 26.0398 54.8551 24.9254C55.4851 24.4895 56.0498 24.1181 56.1142 24.1181C56.1954 24.1022 57.2771 24.7966 58.5363 25.6684ZM28.0558 25.4257C29.622 26.6205 32.5603 27.6537 34.4009 27.6537C34.7397 27.6537 35.8215 27.3634 36.8389 27.0078C37.8562 26.6523 38.7113 26.3946 38.7439 26.4105C38.7765 26.4431 38.7765 30.0432 38.7598 34.418L38.7113 42.3619L30.897 37.3571L23.0669 32.3682L22.4855 30.6087C22.1625 29.6566 21.7752 28.6393 21.6463 28.3808C21.1301 27.396 21.0975 27.4278 23.9387 25.8139L26.6026 24.2963L27.0058 24.6033C27.2317 24.7807 27.7002 25.1513 28.0558 25.4257ZM19.5631 29.3814C20.4508 31.1408 21.3711 35.4035 21.6622 39.1006C22.0178 43.5892 21.1619 48.4158 19.2728 52.4358C18.5784 53.9209 18.4169 55.0838 18.191 59.8627C18.1425 61.1059 17.9977 62.6236 17.868 63.221C16.9477 67.7095 14.3483 71.7455 11.4744 73.1017L10.893 73.392L8.89089 72.537C7.79322 72.0684 6.27555 71.374 5.50082 70.9867L4.08021 70.2764V68.0969C4.08021 63.0754 5.06494 58.5391 7.80995 50.9834C8.35879 49.4658 9.61793 45.9142 10.6027 43.073C12.4918 37.6808 13.4765 35.4847 15.026 33.1437C15.9622 31.739 18.6905 28.7849 19.046 28.7849C19.1598 28.784 19.3857 29.0584 19.5631 29.3814ZM64.494 30.2699C67.1905 33.0626 68.9985 36.0979 71.2582 41.6197C76.2471 53.8088 78.8784 63.1406 78.8139 68.2584C78.7813 70.3408 78.7336 70.4378 77.5381 71.0837C75.7619 72.0199 71.8548 73.6673 71.6615 73.5535C71.5645 73.505 71.0156 73.0858 70.4509 72.6332C67.9 70.5993 65.5432 66.5148 64.8002 62.8495C64.7032 62.3651 64.5584 60.8633 64.4614 59.5239C64.2196 56.0853 63.8966 54.1317 63.4122 53.1788C61.8787 50.1275 60.7484 45.0416 60.7484 41.1671C60.7484 39.3265 61.0713 36.8727 61.5557 34.7735C62.0075 32.9011 63.2022 29.2684 63.3804 29.2684C63.4608 29.2684 63.9611 29.7202 64.494 30.2699ZM31.6559 40.8768L38.7916 45.4457V49.6113V53.7761L31.4777 49.4172L24.1479 45.0424L24.229 42.6036C24.2934 40.3916 24.132 37.8733 23.8417 36.3715L23.7287 35.8068L24.1161 36.0653C24.3261 36.2109 27.7161 38.3744 31.6559 40.8768ZM58.4719 37.6156C58.2778 38.9718 58.2301 42.4915 58.3748 44.4284C58.4074 44.9454 58.3422 45.0257 57.5189 45.4942C55.1295 46.8822 41.5517 54.4546 41.4546 54.4546C41.4061 54.4546 41.3902 52.5981 41.4061 50.3216L41.4546 46.1727L50.0109 41.055C54.7262 38.2447 58.6015 35.9523 58.6333 35.985C58.666 36.0168 58.6015 36.7438 58.4719 37.6156ZM58.8115 48.1414C58.8115 48.7387 59.7963 51.7255 60.5877 53.5502C61.8954 56.5529 62.1698 56.0367 58.0209 58.2321C56.0674 59.2812 54.4209 60.1212 54.3564 60.1212C54.292 60.1212 53.8076 58.975 53.2906 57.5703C52.3385 54.9709 52.0155 54.4546 51.3044 54.4546C50.9488 54.4546 50.0938 55.262 50.0938 55.6008C50.0938 55.6979 50.4652 57.0374 50.917 58.6035C51.3529 60.1697 51.6758 61.4933 51.5955 61.5586C51.3696 61.7518 41.3919 66.5633 41.2145 66.5633C41.1015 66.5633 41.0689 64.9972 41.0856 61.9459L41.1342 57.3126L49.7716 52.5981C54.5179 49.9987 58.5062 47.8678 58.6191 47.8519C58.7145 47.8352 58.8115 47.964 58.8115 48.1414ZM38.7598 61.5418C38.7757 64.0442 38.7439 66.0789 38.6954 66.0789C38.5983 66.0789 31.8173 62.3977 31.0911 61.9459L30.7364 61.72L31.7052 58.8621C32.2214 57.28 32.6582 55.7941 32.6582 55.5523C32.6582 54.6964 31.6575 54.1643 30.9949 54.6479C30.8494 54.7609 30.2846 56.0853 29.7676 57.5862C29.2346 59.0712 28.767 60.3304 28.7184 60.3789C28.6858 60.4115 26.9749 59.5874 24.9243 58.5383L21.1778 56.6341L21.2907 56.0694C21.3393 55.7623 21.5166 55.262 21.6781 54.9391C22.1466 54.0188 22.8887 51.7582 23.3731 49.8213L23.809 48.0293L31.2677 52.5178L38.7104 57.0223L38.7598 61.5418ZM27.5547 62.7039C27.635 62.7683 27.2158 64.3345 26.6185 66.191C26.037 68.0316 25.5526 69.6782 25.5526 69.8396C25.5526 70.5826 26.6503 70.9858 27.5547 70.5826C28.0232 70.3567 28.1679 70.0496 29.1853 66.6755C29.6212 65.2866 30.0085 64.1413 30.073 64.1413C30.1374 64.1413 32.1068 65.1578 34.4486 66.4019L38.7104 68.6457L38.759 70.7608L38.8075 72.8599L31.9947 72.8273L25.182 72.7787L24.3102 71.6484C23.2443 70.2764 21.9693 67.7087 21.5334 66.0789C21.0648 64.3998 20.7101 61.8815 20.7101 60.3797V59.1365L24.0684 60.8483C25.9082 61.8004 27.4743 62.6236 27.5547 62.7039ZM62.2175 61.5092C61.9916 63.7531 61.5231 65.8204 60.7643 67.8058C60.2313 69.162 58.7781 71.6484 58.036 72.4073L57.616 72.8591H49.4956H41.3751V71.164V69.469L47.0417 66.6278C50.1573 65.0775 52.7241 63.8183 52.7568 63.851C52.7727 63.8836 53.2412 65.2716 53.8059 66.9674C54.9203 70.3734 55.1621 70.7616 56.2113 70.7616C56.8245 70.7616 57.196 70.4872 57.406 69.9216C57.4545 69.7769 57.0027 68.1136 56.3886 66.2245C55.7754 64.3354 55.291 62.77 55.3069 62.7533C55.7586 62.3977 62.2978 59.2017 62.3463 59.3147C62.379 59.4109 62.3146 60.3956 62.2175 61.5092Z" fill="url(#paint0_linear_508_410)"/>
<path d="M0.932745 76.0073C0.368013 76.5561 0.383909 77.3467 0.965374 77.8964C1.59536 78.4779 8.63402 81.5776 9.32843 81.5776C9.61874 81.5776 9.99021 81.4647 10.1199 81.3191C10.4755 80.9635 10.4587 79.7688 10.0873 79.43C9.74842 79.1229 1.90157 75.604 1.56274 75.604C1.43306 75.604 1.14274 75.7814 0.932745 76.0073Z" fill="url(#paint1_linear_508_410)"/>
<path d="M77.4584 77.2665C72.841 79.3489 73.0343 79.236 72.7607 79.8819C72.3892 80.8022 72.8895 81.5769 73.8743 81.5769C74.0843 81.5769 75.9893 80.8022 78.1043 79.8492C82.4473 77.8798 82.7376 77.6698 82.4147 76.6039C82.2532 76.0551 81.7362 75.6033 81.2844 75.6033C81.22 75.6041 79.5082 76.3621 77.4584 77.2665Z" fill="url(#paint2_linear_508_410)"/>
<path d="M23.2124 78.4128C22.6795 78.9458 22.6795 79.6879 23.2124 80.2208L23.5998 80.6082L41.8436 80.5755C61.9112 80.527 60.4747 80.6082 60.6847 79.5423C60.7492 79.1549 60.6847 78.9449 60.3777 78.5734L59.9744 78.1049L41.7951 78.0564L23.5998 78.0246L23.2124 78.4128Z" fill="url(#paint3_linear_508_410)"/>
<defs>
<linearGradient id="paint0_linear_508_410" x1="41.5874" y1="76.4045" x2="41.5874" y2="0.601425" gradientUnits="userSpaceOnUse">
<stop stop-color="#737373"/>
<stop offset="1"/>
</linearGradient>
<linearGradient id="paint1_linear_508_410" x1="5.44779" y1="81.5776" x2="5.44779" y2="75.604" gradientUnits="userSpaceOnUse">
<stop stop-color="#737373"/>
<stop offset="1"/>
</linearGradient>
<linearGradient id="paint2_linear_508_410" x1="77.5737" y1="81.5769" x2="77.5737" y2="75.6033" gradientUnits="userSpaceOnUse">
<stop stop-color="#737373"/>
<stop offset="1"/>
</linearGradient>
<linearGradient id="paint3_linear_508_410" x1="41.76" y1="80.6082" x2="41.76" y2="78.0246" gradientUnits="userSpaceOnUse">
<stop stop-color="#737373"/>
<stop offset="1"/>
</linearGradient>
</defs>
</svg>
