<svg width="48" height="48" viewBox="0 0 48 48" fill="none" xmlns="http://www.w3.org/2000/svg">
<path d="M41.969 10.6623C41.8027 9.70404 40.9814 9 40.0133 9H37.5785C38.7128 12.0606 39.2604 14.8474 39.2604 16.2555C39.2604 19.5606 36.6007 22.2398 33.3249 22.2398C30.0785 22.2398 27.4286 19.5899 27.3895 16.324C27.2331 14.7985 25.6979 10.9948 24.3582 9H23.5173C22.1777 11.0046 20.6425 14.8083 20.486 16.324C20.4469 19.5899 17.797 22.2398 14.5506 22.2398C11.2748 22.2398 8.61513 19.5508 8.61513 16.2555C8.61513 14.8474 9.16272 12.0606 10.297 9H7.85242C6.88437 9 6.06299 9.70404 5.89676 10.6623L0.0199876 45.5514C-0.185357 47.2626 1.24228 47.8786 1.97565 47.8786H45.9096C45.9194 47.8786 45.9194 47.8786 45.9292 47.8786C47.0244 47.8786 47.9044 46.9888 47.9044 45.8838C47.9044 45.6687 41.969 10.6623 41.969 10.6623V10.6623Z" fill="url(#paint0_linear_502_329)"/>
<path d="M14.5506 18.2757C15.6457 18.2757 16.5258 17.3859 16.5258 16.2809C16.5258 14.0808 20.134 3.98955 23.9377 3.98955C27.7415 3.98955 31.3497 14.0808 31.3497 16.2809C31.3497 17.3859 32.2395 18.2757 33.3249 18.2757C34.4201 18.2757 35.3002 17.3859 35.3002 16.2809C35.3002 13.631 31.3399 0 23.928 0C16.516 0 12.5558 13.631 12.5558 16.2809C12.5656 17.3859 13.4554 18.2757 14.5506 18.2757V18.2757Z" fill="#1E1E1E"/>
<defs>
<linearGradient id="paint0_linear_502_329" x1="23.9522" y1="9" x2="23.9522" y2="47.8786" gradientUnits="userSpaceOnUse">
<stop stop-color="#313131"/>
<stop offset="1" stop-color="#140E0E"/>
</linearGradient>
</defs>
</svg>
