<svg width="83" height="82" viewBox="0 0 83 82" fill="none" xmlns="http://www.w3.org/2000/svg">
<path d="M56.511 27.951C56.6945 28.0511 56.8927 28.0985 57.0882 28.0985L57.0892 28.0945L57.0902 28.0985C57.2858 28.0985 57.4838 28.0511 57.6673 27.951C65.0409 23.9288 65.2446 19.6129 64.99 17.944C64.6612 15.7888 63.0874 14.0716 61.0738 13.6707C59.6132 13.3791 58.2016 13.819 57.0892 14.8635C55.9771 13.8193 54.5654 13.3791 53.1045 13.6707C51.0909 14.0716 49.5169 15.789 49.1881 17.9442C48.9333 19.6129 49.1372 23.9288 56.511 27.951ZM51.5753 18.3084C51.7514 17.1543 52.5555 16.2422 53.576 16.0392C54.5279 15.8498 55.409 16.334 56.0562 17.4026C56.4015 17.9727 57.1441 18.1555 57.7144 17.8097C57.8871 17.7051 58.0235 17.5638 58.1211 17.4024L58.1215 17.4026C58.7689 16.3338 59.6496 15.8498 60.6017 16.0392C61.6222 16.2424 62.4262 17.1543 62.6022 18.3084C62.9552 20.6213 60.9029 23.2832 57.0888 25.5039C53.275 23.2832 51.2225 20.6213 51.5753 18.3084Z" fill="url(#paint0_linear_508_333)"/>
<path d="M56.511 43.7652C56.6945 43.8653 56.8927 43.9127 57.0881 43.9127L57.0891 43.9087L57.0902 43.9127C57.2858 43.9127 57.4838 43.8653 57.6673 43.7652C65.0409 39.743 65.2446 35.4271 64.99 33.7582C64.6612 31.603 63.0874 29.8858 61.0736 29.4847C59.6138 29.1941 58.2016 29.6337 57.0891 30.6777C55.9771 29.6337 54.5653 29.1945 53.1045 29.4847C51.0909 29.8858 49.5169 31.603 49.1881 33.7584C48.9333 35.4271 49.1374 39.743 56.511 43.7652ZM51.5753 34.1226C51.7513 32.9685 52.5555 32.0564 53.576 31.8534C54.5283 31.664 55.4088 32.148 56.0562 33.2166C56.4015 33.7869 57.1441 33.9695 57.7144 33.6237C57.8871 33.5191 58.0235 33.3778 58.1211 33.2164L58.1215 33.2166C58.7689 32.1478 59.6498 31.6638 60.6017 31.8534C61.6222 32.0566 62.4261 32.9685 62.6022 34.1226C62.955 36.4355 60.9029 39.0974 57.0887 41.3181C53.275 39.0974 51.2225 36.4355 51.5753 34.1226Z" fill="url(#paint1_linear_508_333)"/>
<path d="M58.9048 60.1593C59.0883 60.2593 59.2863 60.3068 59.4819 60.3068L59.4829 60.3028L59.4839 60.3068C59.6795 60.3068 59.8776 60.2593 60.0611 60.1593C67.4347 56.137 67.6384 51.8211 67.3838 50.1522C67.0549 47.9971 65.4812 46.2799 63.4674 45.8788C62.0073 45.5882 60.5954 46.0277 59.4831 47.0718C58.371 46.0277 56.9595 45.5882 55.4985 45.8788C53.4846 46.2799 51.9109 47.9971 51.5821 50.1522C51.3275 51.8211 51.5314 56.137 58.9048 60.1593ZM53.9694 50.5167C54.1455 49.3625 54.9495 48.4505 55.97 48.2474C56.9223 48.0579 57.8027 48.5418 58.4501 49.6107C58.7955 50.181 59.5379 50.3635 60.1084 50.0178C60.2811 49.9131 60.4175 49.7719 60.5153 49.6105L60.5157 49.6107C61.1631 48.5418 62.044 48.0579 62.9958 48.2474C64.0164 48.4507 64.8203 49.3625 64.9964 50.5167C65.3492 52.8296 63.2971 55.4914 59.4827 57.7121C55.6687 55.4914 53.6167 52.8296 53.9694 50.5167Z" fill="url(#paint2_linear_508_333)"/>
<path d="M71.4663 19.7571C71.6498 19.8572 71.8478 19.9047 72.0435 19.9047L72.0445 19.9006L72.0455 19.9047C72.2411 19.9047 72.4391 19.8572 72.6226 19.7571C77.8842 16.8868 78.0182 13.7341 77.8318 12.5119C77.5827 10.8782 76.3835 9.57499 74.8478 9.2693C73.8309 9.06705 72.8498 9.32062 72.0445 9.95675C71.2387 9.32062 70.2576 9.06745 69.2407 9.2693C67.705 9.57519 66.5058 10.8782 66.2567 12.5119C66.0703 13.7343 66.2047 16.887 71.4663 19.7571ZM68.6442 12.8764C68.7557 12.1455 69.261 11.7277 69.7126 11.6379C70.1966 11.5403 70.6575 11.8106 71.0119 12.3958C71.3572 12.966 72.0998 13.1487 72.6701 12.8032C72.8428 12.6985 72.9794 12.557 73.0772 12.3956L73.0776 12.3958C73.4316 11.811 73.8931 11.5422 74.3763 11.6379C74.8279 11.7279 75.3334 12.1457 75.4449 12.8764C75.5262 13.4091 75.497 15.2404 72.0447 17.306C68.5919 15.2402 68.5629 13.4089 68.6442 12.8764Z" fill="url(#paint3_linear_508_333)"/>
<path d="M50.7156 13.389C50.8992 13.489 51.0972 13.5365 51.2928 13.5365L51.2938 13.5324L51.2948 13.5365C51.4904 13.5365 51.6885 13.489 51.872 13.389C56.1603 11.0497 56.2623 8.43291 56.1072 7.41642C55.8945 6.023 54.8681 4.91093 53.5528 4.64891C52.7522 4.48972 51.9593 4.66943 51.2938 5.12908C50.6285 4.66943 49.8356 4.48992 49.0349 4.64891C47.7195 4.91093 46.693 6.023 46.4805 7.41642C46.3253 8.43291 46.4273 11.0497 50.7156 13.389ZM48.8676 7.78067C48.9364 7.32988 49.2472 7.06907 49.5066 7.01735C49.8501 6.94853 50.1061 7.23993 50.2608 7.49591C50.6066 8.06644 51.3494 8.24857 51.9191 7.90343C52.092 7.79858 52.2284 7.65731 52.3262 7.49571L52.3266 7.49591C52.4816 7.24013 52.7379 6.94853 53.0809 7.01735C53.3403 7.06907 53.651 7.32988 53.7198 7.78067C53.8349 8.53514 53.236 9.72811 51.2936 10.9303C49.3516 9.72811 48.7525 8.53514 48.8676 7.78067Z" fill="url(#paint4_linear_508_333)"/>
<path d="M61.8213 11.7464C62.0048 11.8465 62.203 11.894 62.3985 11.894L62.3995 11.8899L62.4005 11.894C62.5961 11.894 62.7941 11.8465 62.9776 11.7464C68.8367 8.55008 68.9906 5.06815 68.7847 3.71941C68.5127 1.938 67.2074 0.517814 65.5365 0.184956C64.3954 -0.0418462 63.2928 0.262234 62.3993 1.01086C61.5057 0.261832 60.4027 -0.0424499 59.2617 0.185359C57.5905 0.518016 56.2854 1.9384 56.0136 3.71981C55.8083 5.06835 55.9621 8.55028 61.8213 11.7464ZM58.4011 4.08386C58.5388 3.18269 59.1693 2.6661 59.7334 2.5536C60.3492 2.43145 60.9292 2.76068 61.3667 3.48275C61.712 4.05307 62.4544 4.2354 63.0249 3.89007C63.1976 3.78542 63.3342 3.64394 63.4318 3.48255L63.4322 3.48275C63.8691 2.76088 64.4493 2.43225 65.0649 2.5538C65.629 2.6661 66.2595 3.18269 66.3972 4.08407C66.6489 5.73326 65.164 7.65555 62.3993 9.2973C59.6348 7.65535 58.1496 5.73326 58.4011 4.08386Z" fill="url(#paint5_linear_508_333)"/>
<path d="M69.9986 49.4149C70.1822 49.5149 70.3802 49.5624 70.5758 49.5624L70.5762 49.5608L70.5766 49.5624C70.7722 49.5624 70.9702 49.5149 71.1538 49.4149C77.013 46.2187 77.167 42.7368 76.9611 41.388C76.6894 39.6066 75.3841 38.1864 73.713 37.8536C72.5721 37.6268 71.4695 37.9307 70.576 38.6791C69.6825 37.9309 68.5799 37.627 67.4394 37.8536C65.7685 38.1862 64.4632 39.6066 64.1911 41.388C63.9856 42.7368 64.1396 46.2185 69.9986 49.4149ZM66.5789 41.7525C66.7165 40.8511 67.347 40.3345 67.9111 40.222C68.5261 40.1001 69.1067 40.4297 69.5438 41.1512C69.8894 41.7217 70.6315 41.9038 71.2021 41.5587C71.381 41.4504 71.5214 41.3029 71.6197 41.1345C72.0559 40.4251 72.6311 40.0999 73.2417 40.2222C73.8058 40.3345 74.4363 40.8511 74.5739 41.7525C74.8257 43.4015 73.3405 45.3234 70.5762 46.9653C67.8119 45.3234 66.3271 43.4015 66.5789 41.7525Z" fill="url(#paint6_linear_508_333)"/>
<path d="M48.4191 70.2133C48.6027 70.3133 48.8007 70.3608 48.9963 70.3608L48.9973 70.3568L48.9983 70.3608C49.1939 70.3608 49.392 70.3133 49.5755 70.2133C56.1409 66.6317 56.318 62.7612 56.0894 61.2629C55.7911 59.3072 54.3605 57.7484 52.5298 57.3841C51.2392 57.1271 49.9933 57.4954 48.9969 58.3809C48.0006 57.4956 46.7543 57.1273 45.4641 57.3841C43.6334 57.7486 42.2029 59.3076 41.9045 61.2631C41.6763 62.7612 41.8536 66.6319 48.4191 70.2133ZM44.2922 61.6274C44.4603 60.525 45.2389 59.8912 45.936 59.7526C46.7104 59.5992 47.4294 60.0005 47.9645 60.8844C48.3099 61.4547 49.0523 61.6372 49.6228 61.2915C49.7955 61.1869 49.9319 61.0456 50.0295 60.8842L50.0299 60.8844C50.5652 60.0007 51.2859 59.5992 52.058 59.7526C52.7552 59.8912 53.5338 60.525 53.702 61.6274C54.0007 63.5857 52.2512 65.8529 48.9971 67.7651C45.7432 65.8529 43.9934 63.5857 44.2922 61.6274Z" fill="url(#paint7_linear_508_333)"/>
<path d="M72.6513 36.9383C72.8348 37.0383 73.0331 37.0858 73.2285 37.0858L73.2295 37.0818L73.2305 37.0858C73.4261 37.0858 73.6241 37.0383 73.8077 36.9383C82.4791 32.2078 82.7256 27.1773 82.4292 25.2341C82.0514 22.7586 80.2473 20.7866 77.9398 20.3272C76.2035 19.9816 74.5265 20.5455 73.2293 21.852C71.9321 20.5459 70.2551 19.9822 68.5192 20.3272C66.2117 20.7866 64.4075 22.7586 64.0298 25.2341C63.7332 27.1773 63.9799 32.2078 72.6513 36.9383ZM66.417 25.5986C66.6419 24.1241 67.6763 22.9574 68.9907 22.6956C70.2132 22.4523 71.3815 23.085 72.1967 24.4314C72.542 25.0017 73.2844 25.1842 73.8549 24.8385C74.0276 24.7338 74.1641 24.5926 74.2619 24.4312L74.2623 24.4314C75.0777 23.085 76.2461 22.4523 77.4683 22.6956C78.7826 22.9574 79.817 24.1241 80.042 25.5986C80.4819 28.4816 77.9442 31.778 73.2295 34.4932C68.5147 31.778 65.9772 28.4816 66.417 25.5986Z" fill="url(#paint8_linear_508_333)"/>
<path d="M33.8216 17.9442C33.4927 15.789 31.9188 14.0716 29.9051 13.6707C28.4443 13.3791 27.0328 13.819 25.9205 14.8635C24.8082 13.8193 23.3965 13.3791 21.9359 13.6707C19.9222 14.0716 18.3485 15.7888 18.0196 17.944C17.7649 19.6129 17.9687 23.9286 25.3423 27.951C25.5259 28.0511 25.7239 28.0985 25.9195 28.0985L25.9205 28.0945L25.9215 28.0985C26.1171 28.0985 26.3151 28.0511 26.4987 27.951C33.8725 23.9288 34.0761 19.6129 33.8216 17.9442ZM25.9205 25.5039C22.1063 23.2832 20.054 20.6213 20.407 18.3084C20.5831 17.1543 21.3871 16.2422 22.4076 16.0392C23.3597 15.85 24.2403 16.334 24.8877 17.4026L24.8881 17.4024C24.9857 17.564 25.1222 17.7053 25.2948 17.8097C25.8652 18.1555 26.6077 17.9727 26.9531 17.4026C27.6003 16.3338 28.4813 15.8496 29.4332 16.0392C30.4537 16.2424 31.2579 17.1543 31.434 18.3084C31.787 20.6213 29.7347 23.2832 25.9205 25.5039Z" fill="url(#paint9_linear_508_333)"/>
<path d="M33.8216 33.7584C33.4927 31.603 31.9188 29.8858 29.9051 29.4847C28.4443 29.1945 27.0328 29.6337 25.9205 30.6777C24.808 29.6337 23.3959 29.1941 21.9361 29.4847C19.9222 29.8858 18.3485 31.603 18.0196 33.7582C17.7649 35.4271 17.9687 39.7428 25.3423 43.7652C25.5259 43.8653 25.7239 43.9127 25.9195 43.9127L25.9205 43.9087L25.9215 43.9127C26.1171 43.9127 26.3151 43.8653 26.4987 43.7652C33.8723 39.743 34.0761 35.4271 33.8216 33.7584ZM25.9205 41.3181C22.1063 39.0974 20.0542 36.4355 20.407 34.1226C20.5831 32.9685 21.3871 32.0564 22.4076 31.8534C23.3595 31.664 24.2403 32.148 24.8877 33.2166L24.8881 33.2164C24.9857 33.378 25.1222 33.5193 25.2948 33.6237C25.8652 33.9695 26.6077 33.7869 26.9531 33.2166C27.6005 32.1478 28.4809 31.6638 29.4332 31.8534C30.4537 32.0566 31.2579 32.9685 31.434 34.1226C31.787 36.4355 29.7347 39.0974 25.9205 41.3181Z" fill="url(#paint10_linear_508_333)"/>
<path d="M31.4273 50.152C31.0985 47.9968 29.5247 46.2796 27.5109 45.8785C26.0499 45.5879 24.6385 46.0275 23.5263 47.0715C22.414 46.0275 21.002 45.5879 19.542 45.8785C17.5282 46.2796 15.9544 47.9968 15.6256 50.152C15.3708 51.8209 15.5747 56.1366 22.9483 60.159C23.1318 60.2591 23.3298 60.3065 23.5254 60.3065L23.5265 60.3025L23.5275 60.3065C23.7231 60.3065 23.9211 60.2591 24.1046 60.159C31.4782 56.1368 31.6821 51.8209 31.4273 50.152ZM23.5265 57.7119C19.7123 55.4912 17.6602 52.8293 18.013 50.5164C18.1891 49.3623 18.993 48.4502 20.0135 48.2472C20.9654 48.0578 21.8463 48.5418 22.4937 49.6104L22.4941 49.6102C22.5917 49.7718 22.7281 49.9131 22.9008 50.0175C23.4713 50.3633 24.2137 50.1807 24.559 49.6104C25.2064 48.5416 26.0869 48.0574 27.0392 48.2472C28.0597 48.4504 28.8637 49.3623 29.0397 50.5164C29.3929 52.8293 27.3408 55.4912 23.5265 57.7119Z" fill="url(#paint11_linear_508_333)"/>
<path d="M16.7528 12.5119C16.5037 10.8782 15.3045 9.57499 13.7688 9.2693C12.7519 9.06745 11.7708 9.32062 10.965 9.95675C10.1597 9.32062 9.17859 9.06705 8.16171 9.2693C6.62601 9.57519 5.42679 10.8782 5.17765 12.5119C4.9911 13.7341 5.12533 16.8868 10.3869 19.7571C10.5704 19.8572 10.7684 19.9047 10.964 19.9047L10.965 19.9006L10.966 19.9047C11.1617 19.9047 11.3597 19.8572 11.5432 19.7571C16.8049 16.887 16.9394 13.7343 16.7528 12.5119ZM10.965 17.3058C7.51289 15.2402 7.48351 13.4091 7.56481 12.8762C7.6763 12.1455 8.18163 11.7277 8.63342 11.6377C9.11661 11.5417 9.57806 11.8106 9.93205 12.3956L9.93245 12.3954C10.0301 12.557 10.1667 12.6985 10.3394 12.8029C10.9097 13.1487 11.6523 12.966 11.9976 12.3956C12.352 11.8106 12.8129 11.5401 13.2969 11.6377C13.7482 11.7275 14.2538 12.1453 14.3653 12.8762C14.4468 13.4089 14.4178 15.2402 10.965 17.3058Z" fill="url(#paint12_linear_508_333)"/>
<path d="M36.5293 7.41642C36.3166 6.023 35.2902 4.91093 33.9749 4.64891C33.1742 4.48992 32.3813 4.66943 31.7159 5.12908C31.0504 4.66943 30.2575 4.48972 29.457 4.64891C28.1416 4.91093 27.1151 6.023 26.9026 7.41642C26.7474 8.43291 26.8494 11.0497 31.1378 13.389C31.3213 13.489 31.5193 13.5365 31.7149 13.5365L31.7159 13.5324L31.7169 13.5365C31.9126 13.5365 32.1106 13.489 32.2941 13.389C36.5822 11.0497 36.6843 8.43291 36.5293 7.41642ZM31.7159 10.9305C29.7737 9.72811 29.1746 8.53534 29.2897 7.78087C29.3586 7.33009 29.6693 7.06927 29.9287 7.01755C30.2716 6.94873 30.5282 7.24013 30.683 7.49611L30.6834 7.49591C30.7812 7.65771 30.9176 7.79899 31.0905 7.90363C31.6602 8.24877 32.4032 8.06664 32.7487 7.49611C32.9037 7.24033 33.1595 6.94873 33.503 7.01755C33.7624 7.06927 34.0731 7.33009 34.1419 7.78087C34.2573 8.53514 33.6582 9.72811 31.7159 10.9305Z" fill="url(#paint13_linear_508_333)"/>
<path d="M26.9956 3.71979C26.7239 1.93838 25.4186 0.518194 23.7475 0.185336C22.6064 -0.0424724 21.5036 0.26201 20.6099 1.01084C19.7166 0.262212 18.6137 -0.0416674 17.4727 0.184934C15.8018 0.517591 14.4965 1.93797 14.2244 3.71939C14.0187 5.06813 14.1725 8.55006 20.0315 11.7464C20.215 11.8464 20.4131 11.8939 20.6087 11.8939L20.6097 11.8899L20.6107 11.8939C20.8063 11.8939 21.0043 11.8464 21.1879 11.7464C27.0475 8.55026 27.2012 5.06833 26.9956 3.71979ZM20.6099 9.29728C17.8452 7.65553 16.3602 5.73324 16.612 4.08404C16.7496 3.18267 17.3801 2.66608 17.9442 2.55378C18.56 2.43223 19.14 2.76086 19.5769 3.48272L19.5773 3.48252C19.6749 3.64412 19.8116 3.7856 19.9842 3.89004C20.5547 4.23558 21.2971 4.05305 21.6425 3.48272C22.08 2.76066 22.6602 2.43142 23.2758 2.55358C23.8399 2.66608 24.4706 3.18267 24.608 4.08384C24.8598 5.73324 23.3748 7.65533 20.6099 9.29728Z" fill="url(#paint14_linear_508_333)"/>
<path d="M18.8182 41.3883C18.5461 39.6069 17.2408 38.1867 15.5699 37.8538C14.4294 37.6272 13.3268 37.9311 12.4333 38.6793C11.5398 37.9309 10.4371 37.627 9.29628 37.8538C7.62515 38.1865 6.32008 39.6069 6.0482 41.3883C5.84233 42.737 5.99628 46.219 11.8555 49.4151C12.039 49.5151 12.2371 49.5626 12.4327 49.5626L12.4331 49.561L12.4335 49.5626C12.6291 49.5626 12.8271 49.5151 13.0107 49.4151C18.8701 46.2186 19.0238 42.7368 18.8182 41.3883ZM12.4333 46.9654C9.66899 45.3234 8.18381 43.4015 8.43556 41.7525C8.57321 40.8512 9.20371 40.3346 9.7678 40.2223C10.3782 40.1001 10.9535 40.4251 11.3896 41.1345C11.4878 41.3032 11.6285 41.4505 11.8072 41.5587C12.3777 41.9039 13.1201 41.7218 13.4655 41.1512C13.9026 40.4298 14.4834 40.0999 15.0982 40.2221C15.6622 40.3346 16.2929 40.8512 16.4304 41.7525C16.6826 43.4015 15.1978 45.3234 12.4333 46.9654Z" fill="url(#paint15_linear_508_333)"/>
<path d="M41.1049 61.2631C40.8067 59.3074 39.376 57.7486 37.5453 57.3841C36.2551 57.1273 35.0088 57.4956 34.0125 58.3809C33.0163 57.4954 31.7702 57.1271 30.4796 57.3841C28.6489 57.7486 27.2185 59.3074 26.92 61.2629C26.6914 62.761 26.8685 66.6317 33.4339 70.2133C33.6174 70.3133 33.8154 70.3608 34.0111 70.3608L34.0121 70.3568L34.0131 70.3608C34.2087 70.3608 34.4067 70.3133 34.5902 70.2133C41.1562 66.6319 41.3335 62.7612 41.1049 61.2631ZM34.0125 67.7651C30.7583 65.8529 29.0089 63.5857 29.3076 61.6274C29.4758 60.525 30.2544 59.8912 30.9515 59.7526C31.7237 59.5992 32.4444 60.0007 32.9797 60.8844L32.9801 60.8842C33.0777 61.0458 33.2141 61.1871 33.3868 61.2915C33.9573 61.6372 34.6997 61.4547 35.045 60.8844C35.5802 60.0005 36.2992 59.5992 37.0736 59.7526C37.7707 59.8912 38.5493 60.525 38.7174 61.6274C39.0164 63.5857 37.2666 65.8529 34.0125 67.7651Z" fill="url(#paint16_linear_508_333)"/>
<path d="M18.9799 25.2339C18.6022 22.7584 16.7981 20.7864 14.4906 20.3269C12.7547 19.982 11.0777 20.5457 9.78046 21.8518C8.48324 20.5453 6.80627 19.9814 5.06994 20.3269C2.76247 20.7864 0.958313 22.7584 0.580578 25.2339C0.283943 27.1771 0.530669 32.2076 9.20209 36.938C9.38562 37.0381 9.58365 37.0856 9.77926 37.0856L9.78026 37.0815L9.78127 37.0856C9.97688 37.0856 10.1749 37.0381 10.3584 36.938C19.0299 32.2076 19.2764 27.1771 18.9799 25.2339ZM9.78026 34.4929C5.06551 31.7777 2.52802 28.4814 2.96794 25.5983C3.19293 24.1238 4.22733 22.9572 5.54165 22.6954C6.76361 22.4521 7.93224 23.0848 8.74768 24.4311L8.74808 24.4309C8.84568 24.5925 8.98213 24.7338 9.15479 24.8382C9.72532 25.184 10.4677 25.0014 10.813 24.4311C11.6283 23.0848 12.7963 22.4521 14.0191 22.6954C15.3334 22.9572 16.3678 24.1238 16.5928 25.5983C17.0325 28.4814 14.495 31.7777 9.78026 34.4929Z" fill="url(#paint17_linear_508_333)"/>
<path d="M52.5051 44.0725C52.0596 41.1526 49.9362 38.8276 47.2215 38.2871C45.1036 37.8659 43.0553 38.6016 41.5049 40.278C39.9547 38.6012 37.9069 37.8651 35.788 38.2871C33.0732 38.8276 30.9498 41.1526 30.5043 44.0725C30.1497 46.396 30.4556 52.4177 40.9265 58.1296C41.1101 58.2296 41.3081 58.2771 41.5037 58.2771L41.5047 58.2731L41.5057 58.2771C41.7013 58.2771 41.8993 58.2296 42.0829 58.1296C52.554 52.4177 52.8597 46.396 52.5051 44.0725ZM41.5047 55.6869C35.5408 52.2877 32.331 48.1108 32.8916 44.4367C33.1843 42.5181 34.5378 40.9985 36.2595 40.6557C37.8747 40.3337 39.4104 41.1546 40.4719 42.9073L40.4723 42.9071C40.5699 43.0687 40.7064 43.2099 40.879 43.3144C41.4494 43.6601 42.192 43.4774 42.5373 42.9073C43.5986 41.1546 45.1347 40.3335 46.7497 40.6557C48.4716 40.9985 49.8249 42.5181 50.1176 44.4367C50.6784 48.111 47.4686 52.2879 41.5047 55.6869Z" fill="url(#paint18_linear_508_333)"/>
<path d="M47.2924 13.0917C47.0432 11.458 45.8438 10.1547 44.3081 9.84905C43.292 9.647 42.3106 9.90037 41.5048 10.5367C40.6988 9.90037 39.7173 9.647 38.7015 9.84905C37.1658 10.1549 35.9663 11.458 35.7172 13.0917C35.5307 14.3141 35.6649 17.4668 40.9266 20.3369C41.1102 20.4369 41.3082 20.4844 41.5038 20.4844L41.5048 20.4804L41.5058 20.4844C41.7014 20.4844 41.8994 20.4369 42.083 20.3369C47.3447 17.4668 47.4789 14.3141 47.2924 13.0917ZM41.5048 17.8853C38.0524 15.8198 38.0233 13.9886 38.1046 13.456C38.2163 12.725 38.7216 12.3072 39.1732 12.2175C39.6564 12.1199 40.118 12.3904 40.472 12.9752L40.4724 12.975C40.5702 13.1368 40.7067 13.2781 40.8795 13.3827C41.4492 13.7278 42.192 13.5455 42.5378 12.9752C42.8918 12.3906 43.3534 12.1199 43.8366 12.2175C44.288 12.3072 44.7935 12.725 44.9052 13.456C44.9863 13.9886 44.9573 15.82 41.5048 17.8853Z" fill="url(#paint19_linear_508_333)"/>
<path d="M47.8903 72.8272C47.6184 71.0458 46.3134 69.6256 44.6422 69.2927C43.5014 69.0659 42.3986 69.3702 41.5046 70.1189C40.6111 69.3702 39.5081 69.0659 38.367 69.2927C36.6959 69.6254 35.3908 71.0458 35.1189 72.8272C34.9133 74.1759 35.067 77.6579 40.9262 80.854C41.1098 80.954 41.3078 81.0015 41.5034 81.0015L41.5044 80.9975L41.5054 81.0015C41.701 81.0015 41.8991 80.954 42.0826 80.854C47.9422 77.6579 48.096 74.1759 47.8903 72.8272ZM41.5046 78.4047C38.7399 76.7629 37.2547 74.8409 37.5063 73.1917C37.644 72.2903 38.2744 71.7737 38.8385 71.6614C39.4545 71.538 40.0343 71.8685 40.4718 72.5905L40.4722 72.5903C40.5698 72.7519 40.7063 72.8932 40.879 72.9977C41.4493 73.3434 42.1919 73.1609 42.5372 72.5905C42.9745 71.8685 43.5545 71.5378 44.1705 71.6614C44.7346 71.7737 45.3653 72.2903 45.5027 73.1917C45.7547 74.8409 44.2695 76.7629 41.5046 78.4047Z" fill="url(#paint20_linear_508_333)"/>
<path d="M50.7043 25.6063C50.3266 23.1308 48.5224 21.1588 46.215 20.6994C44.4788 20.3545 42.8018 20.9182 41.5046 22.2242C40.2074 20.9178 38.5302 20.3535 36.7943 20.6994C34.4868 21.1588 32.6827 23.1308 32.3049 25.6063C32.0083 27.5496 32.255 32.5801 40.9265 37.3103C41.11 37.4103 41.308 37.4578 41.5036 37.4578L41.5046 37.4538L41.5056 37.4578C41.7012 37.4578 41.8993 37.4103 42.0828 37.3103C50.7542 32.5801 51.0009 27.5496 50.7043 25.6063ZM41.5046 34.865C36.7899 32.1498 34.2524 28.8536 34.6921 25.9706C34.9171 24.4961 35.9515 23.3295 37.2658 23.0676C38.488 22.8243 39.6564 23.4571 40.4718 24.8034L40.4722 24.8032C40.5698 24.9648 40.7063 25.106 40.879 25.2105C41.4493 25.556 42.1919 25.3737 42.5372 24.8034C43.3525 23.4571 44.5209 22.8243 45.7432 23.0676C47.0576 23.3295 48.092 24.4961 48.3169 25.9706C48.7569 28.8536 46.2194 32.1498 41.5046 34.865Z" fill="url(#paint21_linear_508_333)"/>
<defs>
<linearGradient id="paint0_linear_508_333" x1="57.089" y1="13.5825" x2="57.089" y2="28.0985" gradientUnits="userSpaceOnUse">
<stop stop-color="#737373"/>
<stop offset="1"/>
</linearGradient>
<linearGradient id="paint1_linear_508_333" x1="57.089" y1="29.397" x2="57.089" y2="43.9127" gradientUnits="userSpaceOnUse">
<stop stop-color="#737373"/>
<stop offset="1"/>
</linearGradient>
<linearGradient id="paint2_linear_508_333" x1="59.4829" y1="45.791" x2="59.4829" y2="60.3068" gradientUnits="userSpaceOnUse">
<stop stop-color="#737373"/>
<stop offset="1"/>
</linearGradient>
<linearGradient id="paint3_linear_508_333" x1="72.0443" y1="9.20117" x2="72.0443" y2="19.9047" gradientUnits="userSpaceOnUse">
<stop stop-color="#737373"/>
<stop offset="1"/>
</linearGradient>
<linearGradient id="paint4_linear_508_333" x1="51.2938" y1="4.59204" x2="51.2938" y2="13.5365" gradientUnits="userSpaceOnUse">
<stop stop-color="#737373"/>
<stop offset="1"/>
</linearGradient>
<linearGradient id="paint5_linear_508_333" x1="62.3993" y1="0.111328" x2="62.3993" y2="11.894" gradientUnits="userSpaceOnUse">
<stop stop-color="#737373"/>
<stop offset="1"/>
</linearGradient>
<linearGradient id="paint6_linear_508_333" x1="70.5762" y1="37.78" x2="70.5762" y2="49.5624" gradientUnits="userSpaceOnUse">
<stop stop-color="#737373"/>
<stop offset="1"/>
</linearGradient>
<linearGradient id="paint7_linear_508_333" x1="48.997" y1="57.304" x2="48.997" y2="70.3608" gradientUnits="userSpaceOnUse">
<stop stop-color="#737373"/>
<stop offset="1"/>
</linearGradient>
<linearGradient id="paint8_linear_508_333" x1="73.2295" y1="20.2275" x2="73.2295" y2="37.0858" gradientUnits="userSpaceOnUse">
<stop stop-color="#737373"/>
<stop offset="1"/>
</linearGradient>
<linearGradient id="paint9_linear_508_333" x1="25.9206" y1="13.5825" x2="25.9206" y2="28.0985" gradientUnits="userSpaceOnUse">
<stop stop-color="#737373"/>
<stop offset="1"/>
</linearGradient>
<linearGradient id="paint10_linear_508_333" x1="25.9206" y1="29.397" x2="25.9206" y2="43.9127" gradientUnits="userSpaceOnUse">
<stop stop-color="#737373"/>
<stop offset="1"/>
</linearGradient>
<linearGradient id="paint11_linear_508_333" x1="23.5265" y1="45.7908" x2="23.5265" y2="60.3065" gradientUnits="userSpaceOnUse">
<stop stop-color="#737373"/>
<stop offset="1"/>
</linearGradient>
<linearGradient id="paint12_linear_508_333" x1="10.9652" y1="9.20117" x2="10.9652" y2="19.9047" gradientUnits="userSpaceOnUse">
<stop stop-color="#737373"/>
<stop offset="1"/>
</linearGradient>
<linearGradient id="paint13_linear_508_333" x1="31.7159" y1="4.59204" x2="31.7159" y2="13.5365" gradientUnits="userSpaceOnUse">
<stop stop-color="#737373"/>
<stop offset="1"/>
</linearGradient>
<linearGradient id="paint14_linear_508_333" x1="20.61" y1="0.111328" x2="20.61" y2="11.8939" gradientUnits="userSpaceOnUse">
<stop stop-color="#737373"/>
<stop offset="1"/>
</linearGradient>
<linearGradient id="paint15_linear_508_333" x1="12.4331" y1="37.7803" x2="12.4331" y2="49.5626" gradientUnits="userSpaceOnUse">
<stop stop-color="#737373"/>
<stop offset="1"/>
</linearGradient>
<linearGradient id="paint16_linear_508_333" x1="34.0125" y1="57.304" x2="34.0125" y2="70.3608" gradientUnits="userSpaceOnUse">
<stop stop-color="#737373"/>
<stop offset="1"/>
</linearGradient>
<linearGradient id="paint17_linear_508_333" x1="9.78023" y1="20.2273" x2="9.78023" y2="37.0856" gradientUnits="userSpaceOnUse">
<stop stop-color="#737373"/>
<stop offset="1"/>
</linearGradient>
<linearGradient id="paint18_linear_508_333" x1="41.5047" y1="38.1704" x2="41.5047" y2="58.2771" gradientUnits="userSpaceOnUse">
<stop stop-color="#737373"/>
<stop offset="1"/>
</linearGradient>
<linearGradient id="paint19_linear_508_333" x1="41.5048" y1="9.78101" x2="41.5048" y2="20.4844" gradientUnits="userSpaceOnUse">
<stop stop-color="#737373"/>
<stop offset="1"/>
</linearGradient>
<linearGradient id="paint20_linear_508_333" x1="41.5046" y1="69.2192" x2="41.5046" y2="81.0015" gradientUnits="userSpaceOnUse">
<stop stop-color="#737373"/>
<stop offset="1"/>
</linearGradient>
<linearGradient id="paint21_linear_508_333" x1="41.5046" y1="20.5996" x2="41.5046" y2="37.4578" gradientUnits="userSpaceOnUse">
<stop stop-color="#737373"/>
<stop offset="1"/>
</linearGradient>
</defs>
</svg>
