<svg width="83" height="81" viewBox="0 0 83 81" fill="none" xmlns="http://www.w3.org/2000/svg">
<path d="M60.7808 13.6867L47.8276 12.3913L42.6525 0.747045C42.2097 -0.248855 40.7486 -0.249175 40.3059 0.747045L35.1305 12.3913L22.1773 13.6867C21.1221 13.7924 20.6454 15.1206 21.3971 15.8723L30.4982 24.9734L27.8937 37.9953C27.6935 38.9962 28.7404 39.8358 29.6741 39.4204L41.4789 34.174L53.2836 39.4204C54.2187 39.8361 55.2642 38.9954 55.064 37.9953L52.4596 24.9734L61.5607 15.8723C62.3127 15.1207 61.836 13.7924 60.7808 13.6867ZM50.1579 23.6436C49.8546 23.9471 49.7226 24.3823 49.8067 24.8033L52.0594 36.0663L42.0001 31.5957C41.6709 31.4494 41.2864 31.4494 40.9571 31.5957L30.8979 36.0663L33.1506 24.8033C33.2348 24.3823 33.103 23.9472 32.7994 23.6436L25.1289 15.9723L36.1285 14.8724C36.5876 14.8266 36.9867 14.5378 37.174 14.1162L41.479 4.43006L45.784 14.1162C45.9716 14.5378 46.3706 14.8266 46.8296 14.8724L57.8293 15.9723L50.1579 23.6436Z" fill="url(#paint0_linear_509_417)"/>
<path d="M34.4547 41.0841L23.661 42.5831L16.2395 33.6428C15.5685 32.8347 14.2194 33.1662 13.9968 34.1903L11.5262 45.558L1.31239 49.3706C0.354765 49.7278 0.193986 51.0618 1.04064 51.6362L10.6204 58.1325L11.4608 69.8398C11.5348 70.8683 12.7919 71.3974 13.5783 70.7216L22.6382 62.9372L32.9504 65.5152C33.9478 65.765 34.8365 64.7443 34.4531 63.7907L30.2556 53.3476L35.7658 42.9575C36.2477 42.0484 35.4711 40.9436 34.4547 41.0841ZM27.7076 52.6713C27.5305 53.0056 27.5096 53.4008 27.6506 53.7518L31.132 62.413L22.6165 60.2843C22.212 60.1831 21.7843 60.2845 21.4683 60.5561L13.8397 67.111L13.1373 57.327C13.1091 56.9347 12.9027 56.577 12.5773 56.3563L4.54062 50.9063L13.0813 47.7183C13.4906 47.5653 13.7944 47.2151 13.8871 46.788L15.9468 37.3103L22.1417 44.7732C22.4255 45.1151 22.8655 45.2859 23.3064 45.2248L32.3206 43.973L27.7076 52.6713Z" fill="url(#paint1_linear_509_417)"/>
<path d="M82.472 50.4209C82.4149 49.944 82.0964 49.5387 81.6464 49.3707L71.4324 45.5581L68.9618 34.1904C68.7392 33.1666 67.3899 32.8344 66.7191 33.6429L59.2976 42.5832L48.5037 41.0842C47.4873 40.9423 46.7113 42.0493 47.1928 42.9575L52.703 53.3476L48.5055 63.7903C48.1222 64.7443 49.0107 65.7644 50.0082 65.5149L60.3203 62.9368L69.3801 70.7213C70.1664 71.3971 71.4235 70.868 71.4975 69.8394L72.338 58.1322L81.9175 51.6359C82.3154 51.3665 82.5292 50.8976 82.472 50.4209ZM70.3814 56.3566C70.056 56.5774 69.8495 56.935 69.8214 57.3273L69.1189 67.1113L61.4903 60.5563C61.1772 60.2872 60.7426 60.1845 60.3421 60.2846L51.8269 62.4135L55.3083 53.7522C55.4494 53.4012 55.4284 53.006 55.2513 52.6718L50.6383 43.9734L59.6525 45.2252C60.0919 45.2864 60.5331 45.1155 60.817 44.7736L67.012 37.3109L69.0718 46.7886C69.1646 47.2156 69.4682 47.5661 69.8775 47.7189L78.4183 50.9069L70.3814 56.3566Z" fill="url(#paint2_linear_509_417)"/>
<path d="M78.4579 17.7891C76.145 17.7891 74.2636 15.9075 74.2636 13.5948C74.2636 12.8857 73.6889 12.3108 72.9796 12.3108C72.2703 12.3108 71.6956 12.8857 71.6956 13.5948C71.6956 15.9075 69.8141 17.7891 67.5013 17.7891C66.792 17.7891 66.2173 18.364 66.2173 19.0731C66.2173 19.7822 66.792 20.3571 67.5013 20.3571C69.8141 20.3571 71.6956 22.2387 71.6956 24.5514C71.6956 25.2605 72.2703 25.8354 72.9796 25.8354C73.6889 25.8354 74.2636 25.2605 74.2636 24.5514C74.2636 22.2387 76.145 20.3571 78.4579 20.3571C79.1672 20.3571 79.7419 19.7822 79.7419 19.0731C79.7419 18.364 79.1672 17.7891 78.4579 17.7891ZM72.9796 20.5911C72.5573 20.0086 72.0441 19.4954 71.4616 19.0731C72.0441 18.6508 72.5573 18.1377 72.9796 17.5552C73.4019 18.1376 73.9151 18.6508 74.4975 19.0731C73.9151 19.4954 73.4019 20.0085 72.9796 20.5911Z" fill="url(#paint3_linear_509_417)"/>
<path d="M46.9574 72.5723C44.6446 72.5723 42.7631 70.6907 42.7631 68.378C42.7631 67.6689 42.1884 67.094 41.4791 67.094C40.77 67.094 40.1951 67.6689 40.1951 68.378C40.1951 70.6907 38.3135 72.5723 36.0008 72.5723C35.2917 72.5723 34.7168 73.1472 34.7168 73.8563C34.7168 74.5654 35.2917 75.1403 36.0008 75.1403C38.3135 75.1403 40.1951 77.0219 40.1951 79.3346C40.1951 80.0437 40.77 80.6186 41.4791 80.6186C42.1884 80.6186 42.7631 80.0437 42.7631 79.3346C42.7631 77.0219 44.6446 75.1403 46.9574 75.1403C47.6667 75.1403 48.2414 74.5654 48.2414 73.8563C48.2414 73.1472 47.6669 72.5723 46.9574 72.5723ZM41.4791 75.3743C41.0568 74.7918 40.5437 74.2786 39.9612 73.8563C40.5436 73.434 41.0568 72.9209 41.4791 72.3384C41.9014 72.9208 42.4146 73.434 42.9971 73.8563C42.4148 74.2786 41.9016 74.7917 41.4791 75.3743Z" fill="url(#paint4_linear_509_417)"/>
<path d="M14.0878 17.7891C11.7751 17.7891 9.89347 15.9075 9.89347 13.5948C9.89347 12.8857 9.31857 12.3108 8.60948 12.3108C7.90039 12.3108 7.32549 12.8857 7.32549 13.5948C7.32549 15.9075 5.44387 17.7891 3.13116 17.7891C2.42206 17.7891 1.84717 18.364 1.84717 19.0731C1.84717 19.7822 2.42206 20.3571 3.13116 20.3571C5.44387 20.3571 7.32549 22.2387 7.32549 24.5514C7.32549 25.2605 7.90039 25.8354 8.60948 25.8354C9.31857 25.8354 9.89347 25.2605 9.89347 24.5514C9.89347 22.2387 11.7751 20.3571 14.0878 20.3571C14.7969 20.3571 15.3718 19.7822 15.3718 19.0731C15.3718 18.364 14.7969 17.7891 14.0878 17.7891ZM8.60948 20.5911C8.1872 20.0086 7.67412 19.4954 7.09153 19.0731C7.67412 18.6508 8.1872 18.1377 8.60948 17.5552C9.03177 18.1376 9.54485 18.6508 10.1274 19.0731C9.54501 19.4954 9.03177 20.0085 8.60948 20.5911Z" fill="url(#paint5_linear_509_417)"/>
<defs>
<linearGradient id="paint0_linear_509_417" x1="41.479" y1="0" x2="41.479" y2="39.5292" gradientUnits="userSpaceOnUse">
<stop stop-color="#737373"/>
<stop offset="1"/>
</linearGradient>
<linearGradient id="paint1_linear_509_417" x1="18.2013" y1="33.1907" x2="18.2013" y2="71.0238" gradientUnits="userSpaceOnUse">
<stop stop-color="#737373"/>
<stop offset="1"/>
</linearGradient>
<linearGradient id="paint2_linear_509_417" x1="64.7638" y1="33.1907" x2="64.7638" y2="71.0234" gradientUnits="userSpaceOnUse">
<stop stop-color="#737373"/>
<stop offset="1"/>
</linearGradient>
<linearGradient id="paint3_linear_509_417" x1="72.9796" y1="12.3108" x2="72.9796" y2="25.8354" gradientUnits="userSpaceOnUse">
<stop stop-color="#737373"/>
<stop offset="1"/>
</linearGradient>
<linearGradient id="paint4_linear_509_417" x1="41.4791" y1="67.094" x2="41.4791" y2="80.6186" gradientUnits="userSpaceOnUse">
<stop stop-color="#737373"/>
<stop offset="1"/>
</linearGradient>
<linearGradient id="paint5_linear_509_417" x1="8.60948" y1="12.3108" x2="8.60948" y2="25.8354" gradientUnits="userSpaceOnUse">
<stop stop-color="#737373"/>
<stop offset="1"/>
</linearGradient>
</defs>
</svg>
